/* XPM */
static char *_a4df1c5423d4bf6c0423be66147fa75lhqh4HWeAJVROYKL[] = {
/* columns rows colors chars-per-pixel */
"32 32 8 1 ",
"  c None",
". c #1C1117",
"X c #241729",
"o c #DA4E38",
"O c #9F294E",
"+ c #AA8D7A",
"@ c #D3BFA9",
"# c #FDF7ED",
/* pixels */
"                                ",
"                                ",
"                                ",
"                                ",
"                                ",
"                                ",
"                                ",
"                                ",
"                                ",
"                                ",
"                                ",
"                                ",
"                                ",
"              ....              ",
"            ..Oooo..            ",
"           .OOo#oooo.           ",
"          .@Oooooo#oo.          ",
"         .OOoo#ooooo#o.         ",
"         .OO#oooo#oooo.         ",
"          ...Oooooo...          ",
"            ........            ",
"            .+@@##@.            ",
"            .+XX##X.            ",
"            .+XX##X.            ",
"            .+++##+.            ",
"            .+#####.            ",
"             .+###.             ",
"             .+###.             ",
"            ..+###..            ",
"           ..+#####..           ",
"           .+@....@@.           ",
"           ....  ....           "
};
