/* XPM */
static char *_33ba69bebfd41b0d17d8622895f49fcbhtx6gKDjsmQA6TL[] = {
/* columns rows colors chars-per-pixel */
"32 32 10 1 ",
"  c None",
". c #1C1117",
"X c #62232F",
"o c #775C55",
"O c #9F294E",
"+ c #AA8D7A",
"@ c #5698CC",
"# c #D6AD8E",
"$ c #E2B694",
"% c #FCCBA3",
/* pixels */
"                                ",
"                                ",
"                                ",
"                                ",
"                                ",
"                                ",
"                                ",
"                                ",
"                                ",
"            ..                  ",
"           .o.  ..              ",
"           .o. .o.  ..          ",
"           .o. .o. .o.          ",
"           .o. .o. .o.          ",
"           .o...o...o.          ",
"           .ooooooooo.          ",
"           ...........          ",
"           .+++++++++.          ",
"        ....++%%%%%%%.          ",
"         .%##+%@@%%%@.          ",
"          .%#+%@@%%%@.          ",
"          ..%+%$$%%%$..         ",
"         .+..+%%%%%%%+.         ",
"         .+.O+X%%%%%%+.         ",
"         .++O+OXX%%%XO.         ",
"          .+OOOOOX%XO..         ",
"           .OOOOOOXOO.          ",
"           .OOOOOOXOO.          ",
"          ..OOOOOOXOO.          ",
"          .OOOOOOXOOO.          ",
"          .XXXXXXXXXX.          ",
"          ............          "
};
