/* XPM */
static char *_b1ab8c055404244da8f8deb0fd9f312FPpvQeCPGr3CATEy[] = {
/* columns rows colors chars-per-pixel */
"32 32 8 1 ",
"  c None",
". c #1C1117",
"X c #5F2D56",
"o c #DA4E38",
"O c #9F294E",
"+ c #AA8D7A",
"@ c #D3BFA9",
"# c #FCCBA3",
/* pixels */
"                                ",
"                                ",
"                                ",
"                                ",
"                                ",
"                                ",
"                                ",
"                                ",
"                                ",
"                                ",
"                                ",
"                                ",
"                                ",
"                                ",
"                                ",
"             .......            ",
"            .+++++@@..          ",
"           .+@@@@@@@@@.         ",
"          .+@@@@@@@@+@.         ",
"          .+@@######+ .         ",
"        ..ooo#######.           ",
"        .#ooo#XX###X.           ",
"         .ooo#XX###X.           ",
"          .+@#######.           ",
"         .++@@@#####+.          ",
"        .++@@O@OO#OO++.         ",
"        .....ooooooo...         ",
"            .oooooo.            ",
"           .ooooooo.            ",
"          .oooooooo.            ",
"         .OOOOOOOOOO.           ",
"        .............           "
};
